<mxfile host="65bd71144e">
    <diagram id="STQg_KLY7t7f9MbzIfjk" name="PÃ¡gina-1">
        <mxGraphModel dx="1726" dy="984" grid="1" gridSize="10" guides="1" tooltips="1" connect="1" arrows="1" fold="1" page="0" pageScale="1" pageWidth="827" pageHeight="1169" math="0" shadow="0">
            <root>
                <mxCell id="0"/>
                <mxCell id="1" parent="0"/>
                <mxCell id="40" style="edgeStyle=none;html=1;entryX=1;entryY=1;entryDx=0;entryDy=0;fontColor=#000000;" parent="1" source="6" target="23" edge="1">
                    <mxGeometry relative="1" as="geometry"/>
                </mxCell>
                <mxCell id="6" value="flights_fact" style="swimlane;childLayout=stackLayout;horizontal=1;startSize=30;horizontalStack=0;rounded=1;fontSize=14;fontStyle=0;strokeWidth=2;resizeParent=0;resizeLast=1;shadow=0;dashed=0;align=center;labelBackgroundColor=none;fontColor=#000000;" parent="1" vertex="1">
                    <mxGeometry x="334" y="320" width="160" height="200" as="geometry"/>
                </mxCell>
                <mxCell id="7" value="flight_id&#10;date_id&#10;pilot_id&#10;customer_id&#10;plane_id&#10;hours_of_flight&#10;total_cost&#10;revenue&#10;fuel_expense&#10;maintenance_hours&#10;region" style="align=left;strokeColor=none;fillColor=none;spacingLeft=4;fontSize=12;verticalAlign=top;resizable=0;rotatable=0;part=1;labelBackgroundColor=none;fontColor=#FFFFFF;" parent="6" vertex="1">
                    <mxGeometry y="30" width="160" height="170" as="geometry"/>
                </mxCell>
                <mxCell id="22" value="date_dim" style="swimlane;childLayout=stackLayout;horizontal=1;startSize=30;horizontalStack=0;rounded=1;fontSize=14;fontStyle=0;strokeWidth=2;resizeParent=0;resizeLast=1;shadow=0;dashed=0;align=center;labelBackgroundColor=none;fontColor=#000000;" parent="1" vertex="1">
                    <mxGeometry x="120" y="170" width="160" height="170" as="geometry"/>
                </mxCell>
                <mxCell id="23" value="date_id&#10;month&#10;year&#10;month_name&#10;full_month_name_year" style="align=left;strokeColor=none;fillColor=none;spacingLeft=4;fontSize=12;verticalAlign=top;resizable=0;rotatable=0;part=1;labelBackgroundColor=none;fontColor=#FFFFFF;" parent="22" vertex="1">
                    <mxGeometry y="30" width="160" height="140" as="geometry"/>
                </mxCell>
                <mxCell id="28" value="plane_dim" style="swimlane;childLayout=stackLayout;horizontal=1;startSize=30;horizontalStack=0;rounded=1;fontSize=14;fontStyle=0;strokeWidth=2;resizeParent=0;resizeLast=1;shadow=0;dashed=0;align=center;labelBackgroundColor=none;fontColor=#000000;" parent="1" vertex="1">
                    <mxGeometry x="120" y="470" width="160" height="170" as="geometry"/>
                </mxCell>
                <mxCell id="29" value="plane_id&#10;plane_type&#10;capacity&#10;purchase_date" style="align=left;strokeColor=none;fillColor=none;spacingLeft=4;fontSize=12;verticalAlign=top;resizable=0;rotatable=0;part=1;labelBackgroundColor=none;fontColor=#FFFFFF;" parent="28" vertex="1">
                    <mxGeometry y="30" width="160" height="140" as="geometry"/>
                </mxCell>
                <mxCell id="30" value="pilot_dim" style="swimlane;childLayout=stackLayout;horizontal=1;startSize=30;horizontalStack=0;rounded=1;fontSize=14;fontStyle=0;strokeWidth=2;resizeParent=0;resizeLast=1;shadow=0;dashed=0;align=center;labelBackgroundColor=none;fontColor=#000000;" parent="1" vertex="1">
                    <mxGeometry x="550" y="170" width="160" height="170" as="geometry"/>
                </mxCell>
                <mxCell id="31" value="pilot_id&#10;first_name&#10;last_name&#10;date_of_birth&#10;license_number" style="align=left;strokeColor=none;fillColor=none;spacingLeft=4;fontSize=12;verticalAlign=top;resizable=0;rotatable=0;part=1;labelBackgroundColor=none;fontColor=#FFFFFF;" parent="30" vertex="1">
                    <mxGeometry y="30" width="160" height="140" as="geometry"/>
                </mxCell>
                <mxCell id="32" value="customer_dim" style="swimlane;childLayout=stackLayout;horizontal=1;startSize=30;horizontalStack=0;rounded=1;fontSize=14;fontStyle=0;strokeWidth=2;resizeParent=0;resizeLast=1;shadow=0;dashed=0;align=center;labelBackgroundColor=none;fontColor=#000000;" parent="1" vertex="1">
                    <mxGeometry x="550" y="470" width="160" height="170" as="geometry"/>
                </mxCell>
                <mxCell id="33" value="customer_id&#10;first_name&#10;last_name&#10;email&#10;phone&#10;country&#10;address" style="align=left;strokeColor=none;fillColor=none;spacingLeft=4;fontSize=12;verticalAlign=top;resizable=0;rotatable=0;part=1;labelBackgroundColor=none;fontColor=#FFFFFF;" parent="32" vertex="1">
                    <mxGeometry y="30" width="160" height="140" as="geometry"/>
                </mxCell>
                <mxCell id="41" style="edgeStyle=none;html=1;entryX=1;entryY=0;entryDx=0;entryDy=0;fontColor=#000000;" parent="1" source="7" target="28" edge="1">
                    <mxGeometry relative="1" as="geometry"/>
                </mxCell>
                <mxCell id="44" style="edgeStyle=none;html=1;entryX=0;entryY=0;entryDx=0;entryDy=0;fontColor=#000000;" parent="1" source="7" target="32" edge="1">
                    <mxGeometry relative="1" as="geometry"/>
                </mxCell>
                <mxCell id="45" style="edgeStyle=none;html=1;entryX=0;entryY=1;entryDx=0;entryDy=0;fontColor=#000000;" parent="1" source="7" target="31" edge="1">
                    <mxGeometry relative="1" as="geometry"/>
                </mxCell>
                <mxCell id="46" value="orders_fact" style="swimlane;childLayout=stackLayout;horizontal=1;startSize=30;horizontalStack=0;rounded=1;fontSize=14;fontStyle=0;strokeWidth=2;resizeParent=0;resizeLast=1;shadow=0;dashed=0;align=center;labelBackgroundColor=none;fontColor=#000000;" vertex="1" parent="1">
                    <mxGeometry x="334" y="20" width="160" height="110" as="geometry"/>
                </mxCell>
                <mxCell id="47" value="date_id&#10;supplier_id&#10;equipment_id&#10;quantity&#10;price" style="align=left;strokeColor=none;fillColor=none;spacingLeft=4;fontSize=12;verticalAlign=top;resizable=0;rotatable=0;part=1;labelBackgroundColor=none;fontColor=#FFFFFF;" vertex="1" parent="46">
                    <mxGeometry y="30" width="160" height="80" as="geometry"/>
                </mxCell>
                <mxCell id="48" style="edgeStyle=none;html=1;" edge="1" parent="1" source="47" target="22">
                    <mxGeometry relative="1" as="geometry"/>
                </mxCell>
                <mxCell id="49" value="supplier_dim" style="swimlane;childLayout=stackLayout;horizontal=1;startSize=30;horizontalStack=0;rounded=1;fontSize=14;fontStyle=0;strokeWidth=2;resizeParent=0;resizeLast=1;shadow=0;dashed=0;align=center;labelBackgroundColor=none;fontColor=#000000;" vertex="1" parent="1">
                    <mxGeometry x="120" y="-40" width="160" height="170" as="geometry"/>
                </mxCell>
                <mxCell id="50" value="supplier_id&#10;supplier_name&#10;supplier_location" style="align=left;strokeColor=none;fillColor=none;spacingLeft=4;fontSize=12;verticalAlign=top;resizable=0;rotatable=0;part=1;labelBackgroundColor=none;fontColor=#FFFFFF;" vertex="1" parent="49">
                    <mxGeometry y="30" width="160" height="140" as="geometry"/>
                </mxCell>
                <mxCell id="51" value="equipment_dim" style="swimlane;childLayout=stackLayout;horizontal=1;startSize=30;horizontalStack=0;rounded=1;fontSize=14;fontStyle=0;strokeWidth=2;resizeParent=0;resizeLast=1;shadow=0;dashed=0;align=center;labelBackgroundColor=none;fontColor=#000000;" vertex="1" parent="1">
                    <mxGeometry x="550" y="-50" width="160" height="170" as="geometry"/>
                </mxCell>
                <mxCell id="52" value="equipment_id&#10;equipment_name&#10;equipment_type" style="align=left;strokeColor=none;fillColor=none;spacingLeft=4;fontSize=12;verticalAlign=top;resizable=0;rotatable=0;part=1;labelBackgroundColor=none;fontColor=#FFFFFF;" vertex="1" parent="51">
                    <mxGeometry y="30" width="160" height="140" as="geometry"/>
                </mxCell>
            </root>
        </mxGraphModel>
    </diagram>
</mxfile>